PathFileType	4	(X/Y/Z)	markers.trc
DataRate	CameraRate	NumFrames	NumMarkers	Units	OrigDataRate	OrigDataStartFrame	OrigNumFrames
200	200	7	29	mm	200	116	185
Frame#	Time	RxCheec			LxCheec			C7			maxkif			RxShould			LxShould			RxElbow			LxElbow			RxWrist			LxWrist			Psis			RxAsis			LxAsis			RxThigh			LxThigh			RxLatCon			LxLatCon			RxFH			LxFH			RxShank			LxShank			RxLatMal			LxLatMal			RxHeel			LxHeel			RxToe1			LxToe1			RxMeta5			LxMeta5			
		X1	Y1	Z1	X2	Y2	Z2	X3	Y3	Z3	X4	Y4	Z4	X5	Y5	Z5	X6	Y6	Z6	X7	Y7	Z7	X8	Y8	Z8	X9	Y9	Z9	X10	Y10	Z10	X11	Y11	Z11	X12	Y12	Z12	X13	Y13	Z13	X14	Y14	Z14	X15	Y15	Z15	X16	Y16	Z16	X17	Y17	Z17	X18	Y18	Z18	X19	Y19	Z19	X20	Y20	Z20	X21	Y21	Z21	X22	Y22	Z22	X23	Y23	Z23	X24	Y24	Z24	X25	Y25	Z25	X26	Y26	Z26	X27	Y27	Z27	X28	Y28	Z28	X29	Y29	Z29

116	2.19	972.9646444320679	1636.3441944122314	232.84883797168732	985.7855439186096	1629.077434539795	69.11167502403259	853.2249331474304	1540.418267250061	154.433473944664	783.2140922546387	1320.0745582580566	163.13110291957855	884.8876357078552	1532.5602293014526	308.60674381256104	894.4587707519531	1513.8039588928223	-1.7484016716480255	859.7305417060852	1183.93874168396	426.7662465572357	767.7526473999023	1187.1814727783203	-69.7561725974083	1029.2975902557373	986.8812561035156	449.786514043808	708.4499001502991	928.8054704666138	-76.61562412977219	816.8272376060486	1013.4046077728271	174.2023378610611	995.7292675971985	990.0245070457458	298.5672950744629	1002.8610229492188	1009.8450183868408	49.63311925530434	995.4394102096558	635.3906393051147	268.3938145637512	1097.241759300232	694.598913192749	86.87156438827515	881.6341757774353	467.08741784095764	306.33559823036194	1084.155797958374	498.0669617652893	49.634143710136414	826.956570148468	439.07642364501953	314.74798917770386	1061.427116394043	445.27941942214966	29.205046594142914	762.4010443687439	326.2116312980652	249.62963163852692	1109.0797185897827	307.4491024017334	95.49648314714432	511.6514563560486	237.81080543994904	278.5172164440155	1052.8446435928345	67.1631470322609	66.42857193946838	481.9464683532715	270.5611288547516	221.2878316640854	1007.9261064529419	46.961672604084015	122.25453555583954	570.1546669006348	41.23931750655174	257.3332190513611	1268.3719396591187	28.022926300764084	73.49122315645218	508.2758665084839	102.13600099086761	304.16232347488403	1163.365125656128	19.22558806836605	23.329177871346474
117	2.195	980.8496236801147	1638.0878686904907	232.21395909786224	994.5948719978333	1630.2162408828735	68.42302531003952	861.6355061531067	1541.8776273727417	153.81410717964172	791.1175489425659	1321.6420412063599	162.24618256092072	892.879843711853	1534.0653657913208	308.0487251281738	903.4940004348755	1514.91379737854	-2.231324790045619	866.118848323822	1185.3750944137573	425.62854290008545	778.8721919059753	1187.5131130218506	-71.02542370557785	1034.6554517745972	987.4514937400818	448.90448451042175	721.4736938476562	928.7300705909729	-78.24916392564774	824.6983289718628	1014.5924091339111	173.35818707942963	1003.1765699386597	991.1675453186035	298.1530427932739	1011.0130310058594	1011.3729238510132	49.004048109054565	1007.3176622390747	636.9110345840454	267.4379348754883	1103.1824350357056	693.6876773834229	85.74243634939194	897.0828652381897	467.4523174762726	306.05703592300415	1088.2530212402344	497.9231655597687	49.61731284856796	842.7689075469971	439.77242708206177	314.3206834793091	1064.847707748413	445.32203674316406	29.19379062950611	777.5862812995911	328.0196785926819	248.87876212596893	1111.191987991333	307.17000365257263	95.66972404718399	526.0598063468933	242.02771484851837	276.5432894229889	1052.9279708862305	67.26708263158798	66.55056029558182	496.65772914886475	273.32308888435364	218.2091623544693	1007.9573392868042	46.97412997484207	122.39103019237518	585.052490234375	44.84493285417557	260.8647048473358	1268.424391746521	27.76532433927059	73.30667227506638	522.5433111190796	107.34029114246368	305.7366907596588	1163.4445190429688	19.227365031838417	23.201365023851395
118	2.2	988.7376427650452	1639.8411989212036	231.64154589176178	1002.9237270355225	1631.388545036316	67.89401173591614	869.972288608551	1543.3883666992188	153.22622656822205	798.9698648452759	1323.257565498352	161.32958233356476	900.7980227470398	1535.6128215789795	307.5217008590698	912.506103515625	1516.0720348358154	-2.6475393678992987	872.4762201309204	1186.8488788604736	424.49620366096497	790.0680899620056	1187.930703163147	-72.270967066288	1039.9097204208374	988.0216121673584	448.04108142852783	734.6972227096558	928.7405014038086	-79.89765703678131	832.5474858283997	1015.9469842910767	172.45367169380188	1010.5507373809814	992.4752116203308	297.81997203826904	1019.174337387085	1012.8847360610962	48.481978476047516	1019.0976858139038	638.6389136314392	266.54452085494995	1108.533501625061	692.5270557403564	84.91929620504379	912.5874638557434	468.15162897109985	305.9367537498474	1091.9772386550903	497.6830780506134	49.43085089325905	858.6254119873047	440.69617986679077	313.87242674827576	1067.8774118423462	445.2495872974396	29.058344662189484	793.1392192840576	329.6819031238556	248.2905238866806	1113.215684890747	306.81201815605164	95.64998000860214	540.9919619560242	245.57644128799438	274.5041847229004	1052.9431104660034	67.36426800489426	66.66809320449829	511.7683410644531	275.35000443458557	215.09873867034912	1007.9561471939087	46.9982884824276	122.53522872924805	600.8087396621704	48.142094165086746	264.42644000053406	1268.4712409973145	27.58011408150196	73.12236726284027	537.8352999687195	112.12456971406937	307.370126247406	1163.509488105774	19.267909228801727	23.061826825141907
119	2.205	996.6254234313965	1641.6009664535522	231.12310469150543	1010.3689432144165	1632.623553276062	67.59006530046463	878.2312870025635	1544.9365377426147	152.6658982038498	806.7845106124878	1324.9037265777588	160.3885442018509	908.6317420005798	1537.194848060608	307.0245087146759	921.4887619018555	1517.2839164733887	-3.0055991373956203	878.8047432899475	1188.3556842803955	423.36490750312805	801.3249039649963	1188.4350776672363	-73.48296791315079	1045.066475868225	988.5900020599365	447.2048878669739	748.1317520141602	928.833544254303	-81.55743777751923	840.3631448745728	1017.4411535263062	171.50409519672394	1017.8629159927368	993.9438700675964	297.5507378578186	1027.3334980010986	1014.3640041351318	48.06426540017128	1030.9165716171265	640.6093835830688	265.84774255752563	1113.4566068649292	691.2945508956909	84.47616547346115	928.1145334243774	469.1765010356903	306.0011863708496	1095.350742340088	497.3728656768799	49.1073802113533	874.4881749153137	441.829651594162	313.43570351600647	1070.5591440200806	445.092648267746	28.832729905843735	809.051513671875	331.14004135131836	247.85153567790985	1115.1670217514038	306.3872158527374	95.45057266950607	556.4258098602295	248.4111785888672	272.44576811790466	1052.8366565704346	67.47855991125107	66.79025292396545	527.2752046585083	276.68240666389465	212.04493939876556	1007.8803300857544	47.04754054546356	122.68124520778656	617.3315644264221	51.04534327983856	267.9825723171234	1268.51224899292	27.461500838398933	72.97620922327042	554.0677309036255	116.43767356872559	308.9626431465149	1163.5569334030151	19.331451505422592	22.945044562220573
120	2.21	1004.5092105865479	1643.3656215667725	230.64829409122467	1016.6230201721191	1633.9479684829712	67.55545735359192	886.4167928695679	1546.5099811553955	152.13114023208618	814.5734667778015	1326.5644311904907	159.4294309616089	916.3739681243896	1538.8015508651733	306.5531551837921	930.4328560829163	1518.5613632202148	-3.3172438852488995	885.1089477539062	1189.8895502090454	422.2330152988434	812.6276731491089	1189.0246868133545	-74.65285062789917	1050.1301288604736	989.1518354415894	446.4026987552643	761.7831826210022	929.0035963058472	-83.22600275278091	848.1440544128418	1019.0385580062866	170.51884531974792	1025.1185894012451	995.5613613128662	297.3311245441437	1035.4788303375244	1015.7928466796875	47.740619629621506	1042.8967475891113	642.844557762146	265.44278860092163	1118.141531944275	690.1595592498779	84.4242051243782	943.6258673667908	470.50535678863525	306.25060200691223	1098.408818244934	497.01860547065735	48.687905073165894	890.3077244758606	443.1668519973755	313.056617975235	1072.9341506958008	444.885790348053	28.550410643219948	825.287401676178	332.39176869392395	247.53651022911072	1117.0597076416016	305.91875314712524	95.08271515369415	572.319746017456	250.53438544273376	270.41229605674744	1052.5778532028198	67.62770563364029	66.92125648260117	543.152391910553	277.365118265152	209.10833775997162	1007.7042579650879	47.13394492864609	122.8221207857132	634.5919370651245	53.549524396657944	271.4895009994507	1268.545150756836	27.39216946065426	72.87918776273727	571.1320042610168	120.23918330669403	310.4345500469208	1163.5831594467163	19.39469762146473	22.86718226969242
121	2.215	1012.3831033706665	1645.1326608657837	230.2083522081375	1021.5905904769897	1635.3769302368164	67.79510527849197	894.5368528366089	1548.0992794036865	151.62046253681183	822.3455548286438	1328.22585105896	158.4567427635193	924.0207672119141	1540.4232740402222	306.1007559299469	939.3277168273926	1519.9179649353027	-3.594881622120738	891.3931846618652	1191.4434432983398	421.10273241996765	823.9631652832031	1189.6967887878418	-75.77697932720184	1055.1033020019531	989.7013902664185	445.63841819763184	775.6484150886536	929.2444586753845	-84.90196615457535	855.8962345123291	1020.7003355026245	169.50298845767975	1032.3175191879272	997.3067045211792	297.151654958725	1043.6007976531982	1017.1542167663574	47.49562591314316	1055.1077127456665	645.3405022621155	265.36932587623596	1122.7595806121826	689.2470717430115	84.71187949180603	959.0851068496704	472.1037447452545	306.6589832305908	1101.1983156204224	496.6435134410858	48.21579530835152	906.0328602790833	444.70760226249695	312.7818703651428	1075.042724609375	444.6631968021393	28.238719329237938	841.7880535125732	333.4832489490509	247.31500446796417	1118.905782699585	305.434912443161	94.5548266172409	588.6188745498657	251.98602676391602	268.4418559074402	1052.1700382232666	67.8185224533081	67.05879420042038	559.3572854995728	277.4406373500824	206.32493495941162	1007.4278116226196	47.26359248161316	122.95124679803848	652.5954604148865	55.70177733898163	274.8931050300598	1268.5680389404297	27.350082993507385	72.82160967588425	588.9108777046204	123.49910289049149	311.73762679100037	1163.5864973068237	19.437450915575027	22.82668836414814
122	2.2199999999999998	1020.2381610870361	1646.8960046768188	229.80046272277832	1025.4584550857544	1636.9071006774902	68.26525926589966	902.600109577179	1549.6960878372192	151.13161504268646	830.1061391830444	1329.877257347107	157.47299790382385	931.5710663795471	1542.0501232147217	305.6589663028717	948.1632709503174	1521.3631391525269	-3.8491091690957546	897.658109664917	1193.0091381072998	419.98085379600525	835.3206515312195	1190.4473304748535	-76.85935497283936	1059.9873065948486	990.2340769767761	444.912850856781	789.7124886512756	929.5518398284912	-86.58387511968613	863.6281490325928	1022.3898887634277	168.4606373310089	1039.4576787948608	999.1519451141357	297.00636863708496	1051.693081855774	1018.4340476989746	47.31181263923645	1067.5464868545532	648.0638384819031	265.61200618743896	1127.431035041809	688.6150240898132	85.23914963006973	974.4624495506287	473.92737865448	307.1816861629486	1103.775143623352	496.267706155777	47.73109778761864	921.622097492218	446.4479386806488	312.6450181007385	1076.927900314331	444.45526599884033	27.916379272937775	858.4837913513184	334.48612689971924	247.15957045555115	1120.7127571105957	304.9637973308563	93.8781350851059	605.26442527771	252.82514095306396	266.5630877017975	1051.6502857208252	68.04580241441727	67.19373166561127	575.842022895813	276.9460082054138	203.71399819850922	1007.0768594741821	47.43383824825287	123.06324392557144	671.3492274284363	57.56717547774315	278.1335413455963	1268.580675125122	27.31543965637684	72.78303056955338	607.2928309440613	126.19712948799133	312.85572052001953	1163.5692119598389	19.44897510111332	22.810054942965508
